<svg width="48" height="50" viewBox="0 0 48 50" fill="none" xmlns="http://www.w3.org/2000/svg">
<path d="M24 49.5083C37.2548 49.5083 48 38.4255 48 24.7541C48 11.0828 37.2548 0 24 0C10.7452 0 0 11.0828 0 24.7541C0 38.4255 10.7452 49.5083 24 49.5083Z" fill="#55ACEE"/>
<path d="M38.7009 17.7884C37.6724 18.2587 36.5661 18.5769 35.4058 18.719C36.5904 17.9869 37.4996 16.8286 37.9287 15.4461C36.8202 16.1243 35.5919 16.6164 34.2858 16.8816C33.2393 15.7321 31.7483 15.0137 30.0974 15.0137C26.9298 15.0137 24.3607 17.6635 24.3607 20.9306C24.3607 21.3944 24.4116 21.8458 24.51 22.2791C19.7424 22.0325 15.515 19.677 12.6854 16.0961C12.1917 16.9698 11.9085 17.9869 11.9085 19.0711C11.9085 21.1234 12.922 22.9353 14.4605 23.9961C13.5205 23.9656 12.6354 23.6996 11.8623 23.2552C11.8619 23.2804 11.8619 23.3055 11.8619 23.3302C11.8619 26.1971 13.8401 28.5883 16.464 29.1315C15.9831 29.2675 15.4753 29.3394 14.9529 29.3394C14.5824 29.3394 14.2234 29.3028 13.8735 29.2339C14.6034 31.5841 16.7215 33.2949 19.2324 33.343C17.2687 34.9302 14.7954 35.8759 12.107 35.8759C11.645 35.8759 11.1872 35.8481 10.7393 35.7929C13.2767 37.4724 16.2928 38.4515 19.5323 38.4515C30.0841 38.4515 35.8546 29.4356 35.8546 21.6159C35.8546 21.3595 35.849 21.104 35.8379 20.8507C36.9597 20.0167 37.9321 18.9749 38.7009 17.7884Z" fill="#F1F2F2"/>
</svg>
