<svg width="59" height="57" viewBox="0 0 59 57" fill="none" xmlns="http://www.w3.org/2000/svg">
<g clip-path="url(#clip0_11_164)" filter="url(#filter0_d_11_164)">
<path d="M39.1286 0H18.9054C10.6865 0 4 6.48171 4 14.4488V34.0526C4 42.0197 10.6865 48.5014 18.9054 48.5014H39.1286C47.3475 48.5014 54.034 42.0197 54.034 34.0526V14.4488C54.0339 6.48171 47.3474 0 39.1286 0ZM49.0006 34.0526C49.0006 39.3377 44.5807 43.6222 39.1286 43.6222H18.9054C13.4533 43.6222 9.03342 39.3377 9.03342 34.0526V14.4488C9.03342 9.16365 13.4533 4.87924 18.9054 4.87924H39.1286C44.5807 4.87924 49.0006 9.16365 49.0006 14.4488V34.0526Z" fill="url(#paint0_linear_11_164)"/>
<path d="M29.0171 11.707C21.8817 11.707 16.0765 17.3343 16.0765 24.2511C16.0765 31.1679 21.8817 36.7953 29.0171 36.7953C36.1526 36.7953 41.9577 31.168 41.9577 24.2511C41.9577 17.3343 36.1526 11.707 29.0171 11.707ZM29.0171 31.9162C24.6501 31.9162 21.11 28.4845 21.11 24.2512C21.11 20.018 24.6502 16.5863 29.0171 16.5863C33.3841 16.5863 36.9243 20.018 36.9243 24.2512C36.9243 28.4844 33.3841 31.9162 29.0171 31.9162Z" fill="url(#paint1_linear_11_164)"/>
<path d="M41.9823 14.8064C43.6948 14.8064 45.0831 13.4607 45.0831 11.8007C45.0831 10.1406 43.6948 8.79492 41.9823 8.79492C40.2698 8.79492 38.8816 10.1406 38.8816 11.8007C38.8816 13.4607 40.2698 14.8064 41.9823 14.8064Z" fill="url(#paint2_linear_11_164)"/>
</g>
<defs>
<filter id="filter0_d_11_164" x="0" y="0" width="58.0339" height="56.502" filterUnits="userSpaceOnUse" color-interpolation-filters="sRGB">
<feFlood flood-opacity="0" result="BackgroundImageFix"/>
<feColorMatrix in="SourceAlpha" type="matrix" values="0 0 0 0 0 0 0 0 0 0 0 0 0 0 0 0 0 0 127 0" result="hardAlpha"/>
<feOffset dy="4"/>
<feGaussianBlur stdDeviation="2"/>
<feComposite in2="hardAlpha" operator="out"/>
<feColorMatrix type="matrix" values="0 0 0 0 0 0 0 0 0 0 0 0 0 0 0 0 0 0 0.25 0"/>
<feBlend mode="normal" in2="BackgroundImageFix" result="effect1_dropShadow_11_164"/>
<feBlend mode="normal" in="SourceGraphic" in2="effect1_dropShadow_11_164" result="shape"/>
</filter>
<linearGradient id="paint0_linear_11_164" x1="29.017" y1="48.3601" x2="29.017" y2="0.376701" gradientUnits="userSpaceOnUse">
<stop stop-color="#E09B3D"/>
<stop offset="0.3" stop-color="#C74C4D"/>
<stop offset="0.6" stop-color="#C21975"/>
<stop offset="1" stop-color="#7024C4"/>
</linearGradient>
<linearGradient id="paint1_linear_11_164" x1="29.0171" y1="48.3606" x2="29.0171" y2="0.377223" gradientUnits="userSpaceOnUse">
<stop stop-color="#E09B3D"/>
<stop offset="0.3" stop-color="#C74C4D"/>
<stop offset="0.6" stop-color="#C21975"/>
<stop offset="1" stop-color="#7024C4"/>
</linearGradient>
<linearGradient id="paint2_linear_11_164" x1="41.9823" y1="48.3599" x2="41.9823" y2="0.376515" gradientUnits="userSpaceOnUse">
<stop stop-color="#E09B3D"/>
<stop offset="0.3" stop-color="#C74C4D"/>
<stop offset="0.6" stop-color="#C21975"/>
<stop offset="1" stop-color="#7024C4"/>
</linearGradient>
<clipPath id="clip0_11_164">
<rect width="50.034" height="48.5014" fill="white" transform="translate(4)"/>
</clipPath>
</defs>
</svg>
